# Vertices
v -0.5  0.5  0.5
v -0.5 -0.5  0.5
v  0.5 -0.5  0.5
v  0.5  0.5  0.5
v  0.5  0.5 -0.5
v  0.5 -0.5 -0.5
v -0.5 -0.5 -0.5
v -0.5  0.5 -0.5

# Texture coordinates
vt 0 0
vt 0 1
vt 1 1
vt 1 0

# Normals
vn  0  0  1
vn  0  0 -1
vn -1  0  0
vn  1  0  0
vn  0  1  0
vn  0 -1  0

# Faces (triangles)
# Front
f 1/1/1 2/2/1 3/3/1
f 3/3/1 4/4/1 1/1/1

# Back
f 5/1/2 6/2/2 7/3/2
f 7/3/2 8/4/2 5/1/2

# Left
f 8/1/3 7/2/3 2/3/3
f 2/3/3 1/4/3 8/1/3

# Right
f 4/1/4 3/2/4 6/3/4
f 6/3/4 5/4/4 4/1/4

# Top
f 8/1/5 1/2/5 4/3/5
f 4/3/5 5/4/5 8/1/5